<svg xmlns="http://www.w3.org/2000/svg" width="800" height="800" viewBox="0 0 800 800"><rect x="0" y="0" width="800" height="800" rx="0" fill="#090c12"/><g fill="#4d8dff" transform="translate(126 505) scale(0.45 -0.45)"><path d="M57.50030517578125 255V329.49981689453125Q57.50030517578125 389.999755859375 95.45022583007812 426.2497253417969Q133.400146484375 462.49969482421875 195 462.49969482421875Q233.7999267578125 462.49969482421875 260.5498962402344 449.19970703125Q287.29986572265625 435.89971923828125 305.79986572265625 415.9497375488281Q324.29986572265625 395.999755859375 338.8498840332031 376.0497741699219Q353.39990234375 356.09979248046875 368.9499206542969 342.7998046875Q384.49993896484375 329.49981689453125 404.49993896484375 329.49981689453125Q425.4000244140625 329.49981689453125 436.2000732421875 342.1498718261719Q447.0001220703125 354.7999267578125 447.0001220703125 378.50006103515625V450H542.4996948242188V375.50018310546875Q542.4996948242188 315.70025634765625 505.0497741699219 279.10028076171875Q467.599853515625 242.50030517578125 405 242.50030517578125Q366.2000732421875 242.50030517578125 339.4501037597656 255.80029296875Q312.70013427734375 269.10028076171875 294.20013427734375 289.0502624511719Q275.70013427734375 309.000244140625 261.1501159667969 328.9502258300781Q246.60009765625 348.90020751953125 231.05007934570312 362.2001953125Q215.50006103515625 375.50018310546875 195.50006103515625 375.50018310546875Q175.29998779296875 375.50018310546875 164.14993286132812 363.0001220703125Q152.9998779296875 350.50006103515625 152.9998779296875 326.49993896484375V255Z" transform="translate(0 0)"/><path d="M67.50030517578125 -110 419.50042724609375 830H532.4996948242188L180.49957275390625 -110Z" transform="translate(600.0 0)"/></g></svg>